<?xml version="1.0" encoding="UTF-8" standalone="no"?>
<svg
   xmlns:dc="http://purl.org/dc/elements/1.1/"
   xmlns:cc="http://creativecommons.org/ns#"
   xmlns:rdf="http://www.w3.org/1999/02/22-rdf-syntax-ns#"
   xmlns:svg="http://www.w3.org/2000/svg"
   xmlns="http://www.w3.org/2000/svg"
   id="svg8"
   version="1.1"
   viewBox="0 0 50.167389 44.078336"
   height="44.078335mm"
   width="50.167389mm">
  <defs
     id="defs2" />
  <metadata
     id="metadata5">
    <rdf:RDF>
      <cc:Work
         rdf:about="">
        <dc:format>image/svg+xml</dc:format>
        <dc:type
           rdf:resource="http://purl.org/dc/dcmitype/StillImage" />
        <dc:title></dc:title>
      </cc:Work>
    </rdf:RDF>
  </metadata>
  <g
     transform="translate(-119.68106,-228.5138)"
     id="layer1">
    <g
       id="text4566"
       style="font-style:normal;font-variant:normal;font-weight:normal;font-stretch:normal;font-size:50.79999924px;line-height:125%;font-family:Z003;-inkscape-font-specification:Z003;letter-spacing:0px;word-spacing:0px;fill:#000000;fill-opacity:1;stroke:none;stroke-width:0.26458332px;stroke-linecap:butt;stroke-linejoin:miter;stroke-opacity:1"
       aria-label="W">
      <text
         id="text4591"
         y="238.46797"
         x="58.46521"
         style="font-style:normal;font-variant:normal;font-weight:normal;font-stretch:normal;font-size:3.30729151px;line-height:125%;font-family:Delicious;-inkscape-font-specification:Delicious;letter-spacing:0px;word-spacing:0px;fill:#000000;fill-opacity:1;stroke:none;stroke-width:0.26458332px;stroke-linecap:butt;stroke-linejoin:miter;stroke-opacity:1"
         xml:space="preserve"><tspan
           style="stroke-width:0.26458332px"
           y="241.51961"
           x="58.46521"
           id="tspan4589" /></text>
      <g
         id="text4595"
         style="font-style:normal;font-variant:normal;font-weight:normal;font-stretch:normal;font-size:16.26363564px;line-height:125%;font-family:Z003;-inkscape-font-specification:Z003;letter-spacing:0px;word-spacing:0px;fill:#000000;fill-opacity:1;stroke:none;stroke-width:1.30109084px;stroke-linecap:butt;stroke-linejoin:miter;stroke-opacity:1"
         transform="matrix(1.0129956,0.34313768,-0.29997079,0.88556033,0,0)"
         aria-label="S">
        <path
           id="path4597"
           transform="matrix(0.2343045,-0.09078851,0.07936727,0.26802175,0,0)"
           d="m 565.48828,863.67773 c -0.859,-0.0319 -1.73992,0.15267 -2.56445,0.58008 -1.77837,0.92166 -2.7109,2.2276 -3.04492,4.26563 -0.25057,1.52846 -0.15637,1.96945 0.77539,3.625 1.84773,3.28332 3.89052,4.44613 10.0664,5.73047 2.0271,0.42174 3.74122,0.88908 3.8086,1.03906 9.71342,2.36938 14.07457,4.87636 15.45703,5.09765 4.10971,1.64396 9.38063,3.86635 14.24805,7.99805 1.80868,1.53524 2.57931,1.97323 3.08789,1.75195 0.79511,-0.34621 2.18858,-2.25669 2.91211,-3.99414 0.59914,-1.43866 0.31076,-1.62242 3.9375,2.48633 6.93169,6.0216 12.67791,10.16329 12.02734,30.875 -2e-5,8.64001 -3.0728,18.81673 -9.2168,30.72071 -7.67999,14.784 -17.85529,28.41703 -41.2793,55.87308 0.57602,-8.8321 0.95902,-14.78452 0.95899,-16.89652 l 1.15234,-27.07227 c 0.57599,-13.44001 0.96144,-22.07961 2.68946,-48.76758 l -11.13672,4.41602 c -8.83199,14.97601 -42.24062,64.51172 -56.64063,84.09575 2.112,-15.55205 9.60095,-57.79207 14.20899,-80.83208 4.03197,-1.344 6.33637,-2.68853 9.98437,-6.14453 -37.24801,0.38399 -39.55285,0.38351 -46.46484,2.6875 -16.51198,5.37603 -22.70571,17.74457 -20.30078,32.7207 0.25671,1.59852 0.61108,2.8017 1.10742,3.76953 0.4963,0.96783 1.13555,1.70148 1.9668,2.36329 0.83128,0.66181 1.86148,1.60517 2.79882,2.68945 0.106,0.12261 0.19329,0.18904 0.29297,0.29297 1.92104,2.93346 2.24532,4.57082 1.54883,6.62695 -1.45667,4.30033 -7.38152,6.41902 -12.79883,4.58399 -2.67752,-0.90698 -5.06728,-2.8678 -6.19531,-5.07032 -0.88353,-1.69495 -0.99481,-3.00646 -0.68164,-5.57031 l -1.19922,0.25977 -4.65625,4.73437 c 1.31275,3.29665 3.77119,5.46338 7.88086,6.85547 9.52693,3.22711 21.15349,-0.35856 23.51367,-7.32617 0.756,-2.23181 0.21002,-3.69053 -3.39062,-8.42969 -0.20995,-0.3418 -0.39197,-0.60173 -0.5918,-0.91406 -0.77314,-1.51864 -1.43957,-3.07516 -1.98633,-4.6543 -1.0973,-3.16904 -1.709,-6.43523 -1.70898,-9.69922 -10e-6,-8.06401 3.83938,-13.82428 10.94336,-16.32031 4.608,-1.72798 9.60116,-2.11075 23.61718,-2.30273 -1.92001,13.248 -2.30519,16.51091 -4.0332,26.8789 -7.29598,44.16003 -9.98375,60.67223 -10.17578,61.82423 l -2.6875,15.7441 12.48047,-3.8398 c 28.22399,-40.51204 36.86361,-53.18388 57.59961,-84.67189 -0.38399,23.03999 -2.49662,71.03969 -4.22461,88.51169 l 12.28906,-4.0312 c 6.52802,-9.984 8.83115,-13.248 21.11914,-28.41603 36.48004,-44.54401 48.96092,-66.43268 48.96094,-85.05665 0.161,-10.29852 -5.15288,-17.20376 -10.54316,-24.94344 -2.03329,-3.1033 -3.46294,-5.04882 -4.37695,-5.95704 -0.73737,-0.73268 0.23875,-0.71364 3.5039,0.0703 3.48014,0.83559 3.84202,0.82937 3.79102,-0.084 -0.0565,-1.00876 -1.29459,-1.9392 -6.1875,-4.64648 -2.59099,-1.43359 -6.81115,-3.94108 -9.37891,-5.57227 -7.71455,-4.90069 -12.51141,-6.75873 -18.02734,-6.98242 -4.76544,-0.19311 -8.23778,0.33638 -20.98828,3.19727 -7.21181,1.61804 -10.63836,1.88379 -9.38086,0.72656 0.1896,-0.17419 0.0353,-0.97343 -0.35547,-1.84375 -0.83876,-1.86729 -2.62192,-2.98258 -4.51172,-3.05274 z m 34.24414,5.60743 c 2.37739,-0.014 4.55494,0.1592 6.23828,0.53515 2.98364,0.66629 4.69876,2.96549 3.85938,5.17383 -0.98448,2.59009 -4.07123,3.47789 -9.21289,2.64648 -2.68566,-0.43428 -16.39676,-5.30552 -16.22266,-5.76367 0.0507,-0.12459 1.46185,-0.59321 3.14063,-1.03906 3.71643,-0.98634 8.23494,-1.52943 12.19726,-1.55273 z"
           style="stroke-width:4.9175086px" />
      </g>
    </g>
  </g>
</svg>
